<?xml version="1.0" encoding="UTF-8" standalone="no"?>
<!-- Generator: Adobe Illustrator 19.0.0, SVG Export Plug-In . SVG Version: 6.00 Build 0)  -->

<svg
   version="1.1"
   id="Layer_1"
   x="0px"
   y="0px"
   viewBox="0 0 511.999 511.999"
   style="enable-background:new 0 0 511.999 511.999;"
   xml:space="preserve"
   sodipodi:docname="boat-svgrepo-com.svg"
   inkscape:version="1.1 (c68e22c387, 2021-05-23)"
   inkscape:export-filename="/home/andy/Downloads/boat-svgrepo-com.png"
   inkscape:export-xdpi="192.00038"
   inkscape:export-ydpi="192.00038"
   xmlns:inkscape="http://www.inkscape.org/namespaces/inkscape"
   xmlns:sodipodi="http://sodipodi.sourceforge.net/DTD/sodipodi-0.dtd"
   xmlns="http://www.w3.org/2000/svg"
   xmlns:svg="http://www.w3.org/2000/svg"><defs
   id="defs53"><marker
     style="overflow:visible;"
     id="marker2842"
     refX="0.0"
     refY="0.0"
     orient="auto"
     inkscape:stockid="Arrow2Lend"
     inkscape:isstock="true"><path
       transform="scale(1.1) rotate(180) translate(1,0)"
       d="M 8.7185878,4.0337352 L -2.2072895,0.016013256 L 8.7185884,-4.0017078 C 6.9730900,-1.6296469 6.9831476,1.6157441 8.7185878,4.0337352 z "
       style="fill-rule:evenodd;fill:context-stroke;stroke-width:0.62500000;stroke-linejoin:round;"
       id="path2840" /></marker><marker
     style="overflow:visible"
     id="marker1469"
     refX="0.0"
     refY="0.0"
     orient="auto"
     inkscape:stockid="Tail"
     inkscape:isstock="true"><g
       transform="scale(-1.2)"
       id="g1467"><path
         style="fill:none;fill-rule:evenodd;stroke:context-stroke;stroke-width:0.8;stroke-linecap:round"
         d="M -3.8048674,-3.9585227 L 0.54352094,0"
         id="path1455" /><path
         style="fill:none;fill-rule:evenodd;stroke:context-stroke;stroke-width:0.8;stroke-linecap:round"
         d="M -1.2866832,-3.9585227 L 3.0617053,0"
         id="path1457" /><path
         style="fill:none;fill-rule:evenodd;stroke:context-stroke;stroke-width:0.8;stroke-linecap:round"
         d="M 1.3053582,-3.9585227 L 5.6537466,0"
         id="path1459" /><path
         style="fill:none;fill-rule:evenodd;stroke:context-stroke;stroke-width:0.8;stroke-linecap:round"
         d="M -3.8048674,4.1775838 L 0.54352094,0.21974226"
         id="path1461" /><path
         style="fill:none;fill-rule:evenodd;stroke:context-stroke;stroke-width:0.8;stroke-linecap:round"
         d="M -1.2866832,4.1775838 L 3.0617053,0.21974226"
         id="path1463" /><path
         style="fill:none;fill-rule:evenodd;stroke:context-stroke;stroke-width:0.8;stroke-linecap:round"
         d="M 1.3053582,4.1775838 L 5.6537466,0.21974226"
         id="path1465" /></g></marker><marker
     style="overflow:visible"
     id="marker1447"
     refX="0.0"
     refY="0.0"
     orient="auto"
     inkscape:stockid="Arrow2Lstart"
     inkscape:isstock="true"><path
       transform="scale(1.1) translate(1,0)"
       d="M 8.7185878,4.0337352 L -2.2072895,0.016013256 L 8.7185884,-4.0017078 C 6.9730900,-1.6296469 6.9831476,1.6157441 8.7185878,4.0337352 z "
       style="fill-rule:evenodd;fill:context-stroke;stroke-width:0.62500000;stroke-linejoin:round"
       id="path1445" /></marker><marker
     style="overflow:visible"
     id="marker1437"
     refX="0.0"
     refY="0.0"
     orient="auto"
     inkscape:stockid="Arrow1Lstart"
     inkscape:isstock="true"><path
       transform="scale(0.8) translate(12.5,0)"
       style="fill-rule:evenodd;fill:context-stroke;stroke:context-stroke;stroke-width:1.0pt"
       d="M 0.0,0.0 L 5.0,-5.0 L -12.5,0.0 L 5.0,5.0 L 0.0,0.0 z "
       id="path1435" /></marker><marker
     style="overflow:visible;"
     id="Arrow2Lend"
     refX="0.0"
     refY="0.0"
     orient="auto"
     inkscape:stockid="Arrow2Lend"
     inkscape:isstock="true"><path
       transform="scale(1.1) rotate(180) translate(1,0)"
       d="M 8.7185878,4.0337352 L -2.2072895,0.016013256 L 8.7185884,-4.0017078 C 6.9730900,-1.6296469 6.9831476,1.6157441 8.7185878,4.0337352 z "
       style="fill-rule:evenodd;fill:context-stroke;stroke-width:0.62500000;stroke-linejoin:round;"
       id="path1140" /></marker><marker
     style="overflow:visible"
     id="Arrow1Lstart"
     refX="0.0"
     refY="0.0"
     orient="auto"
     inkscape:stockid="Arrow1Lstart"
     inkscape:isstock="true"><path
       transform="scale(0.8) translate(12.5,0)"
       style="fill-rule:evenodd;fill:context-stroke;stroke:context-stroke;stroke-width:1.0pt"
       d="M 0.0,0.0 L 5.0,-5.0 L -12.5,0.0 L 5.0,5.0 L 0.0,0.0 z "
       id="path1119" /></marker><marker
     style="overflow:visible"
     id="Arrow2Lstart"
     refX="0.0"
     refY="0.0"
     orient="auto"
     inkscape:stockid="Arrow2Lstart"
     inkscape:isstock="true"><path
       transform="scale(1.1) translate(1,0)"
       d="M 8.7185878,4.0337352 L -2.2072895,0.016013256 L 8.7185884,-4.0017078 C 6.9730900,-1.6296469 6.9831476,1.6157441 8.7185878,4.0337352 z "
       style="fill-rule:evenodd;fill:context-stroke;stroke-width:0.62500000;stroke-linejoin:round"
       id="path1137" /></marker><marker
     style="overflow:visible"
     id="Tail"
     refX="0.0"
     refY="0.0"
     orient="auto"
     inkscape:stockid="Tail"
     inkscape:isstock="true"><g
       transform="scale(-1.2)"
       id="g1167"><path
         style="fill:none;fill-rule:evenodd;stroke:context-stroke;stroke-width:0.8;stroke-linecap:round"
         d="M -3.8048674,-3.9585227 L 0.54352094,0"
         id="path1155" /><path
         style="fill:none;fill-rule:evenodd;stroke:context-stroke;stroke-width:0.8;stroke-linecap:round"
         d="M -1.2866832,-3.9585227 L 3.0617053,0"
         id="path1157" /><path
         style="fill:none;fill-rule:evenodd;stroke:context-stroke;stroke-width:0.8;stroke-linecap:round"
         d="M 1.3053582,-3.9585227 L 5.6537466,0"
         id="path1159" /><path
         style="fill:none;fill-rule:evenodd;stroke:context-stroke;stroke-width:0.8;stroke-linecap:round"
         d="M -3.8048674,4.1775838 L 0.54352094,0.21974226"
         id="path1161" /><path
         style="fill:none;fill-rule:evenodd;stroke:context-stroke;stroke-width:0.8;stroke-linecap:round"
         d="M -1.2866832,4.1775838 L 3.0617053,0.21974226"
         id="path1163" /><path
         style="fill:none;fill-rule:evenodd;stroke:context-stroke;stroke-width:0.8;stroke-linecap:round"
         d="M 1.3053582,4.1775838 L 5.6537466,0.21974226"
         id="path1165" /></g></marker></defs><sodipodi:namedview
   id="namedview51"
   pagecolor="#ffffff"
   bordercolor="#666666"
   borderopacity="1.0"
   inkscape:pageshadow="2"
   inkscape:pageopacity="0.0"
   inkscape:pagecheckerboard="0"
   showgrid="false"
   inkscape:zoom="1.9506277"
   inkscape:cx="193.52745"
   inkscape:cy="193.52745"
   inkscape:window-width="1860"
   inkscape:window-height="1160"
   inkscape:window-x="60"
   inkscape:window-y="40"
   inkscape:window-maximized="1"
   inkscape:current-layer="Layer_1" />
<path
   style="fill:#66CC92;"
   d="M502.671,206.782l-3.171,6.33c0,0-3.171,5.74-8.83,14.536h-0.012  c-8.738,13.575-23.401,34.43-41.501,52.715c-5.416,5.486-11.156,10.74-17.14,15.508l-34.487,39.14h-68.28l-217.571,3.472  l-11.145-3.588l-73.187-23.586L8.68,249.706c0,0,20.889-4.641,54.555-11.156c7.835-1.516,16.376-3.125,25.507-4.814  c99.284-18.308,268.492-44.463,375.658-33.284C478.298,201.899,491.144,203.982,502.671,206.782z"
   id="path2" />
<path
   style="fill:#F2D546;"
   d="M71.151,237.046l-8.657-51.916c0,0,144.234-51.662,238.958-40.899l66.753,54.381"
   id="path4" />
<path
   style="fill:#89E8E8;"
   d="M368.208,198.608c-13.425,0.567-27.127,1.389-40.968,2.442c-38.26,2.882-77.597,7.43-115,12.626  c-4.004-20.82-10.138-38.075-14.744-49.15c-3.53-8.541-6.145-13.413-6.145-13.413c26.328-4.756,53.849-8.136,79.506-8.344  c10.589-0.093,20.854,0.347,30.599,1.458l11.145,9.085L368.208,198.608z"
   id="path6" />
<path
   style="fill:#A7F2F0;"
   d="M368.205,198.612c-13.425,0.567-27.127,1.389-40.968,2.442  c-14.674-22.417-40.841-45.551-56.383-58.281c10.589-0.093,20.854,0.347,30.599,1.458L368.205,198.612z"
   id="path8" />
<path
   style="fill:#51AD77;"
   d="M88.741,233.736c-3.986,0.735-7.846,1.456-11.598,2.163c-4.844,0.911-9.492,1.796-13.908,2.651  l0.003,0.003C29.572,245.062,8.68,249.706,8.68,249.706l18.667,61.603l73.187,23.586c6.573-5.023,8.228-11.295,2.592-19.142  c-15.302-21.298-19.296-40.892-19.282-55.586l0.001,0.001c0,0,234.804-49.429,365.116-39.014  c7.284,0.582,12.729,6.931,12.293,14.225c-0.677,11.309-3.511,27.048-12.097,44.983c18.1-18.285,32.763-39.14,41.501-52.715h0.012  c5.659-8.795,8.83-14.536,8.83-14.536l3.171-6.33C402.299,182.363,200.895,213.055,88.741,233.736z"
   id="path10" />
<path
   style="fill:#4D4D4D;"
   d="M434.626,235.108c-3.871,0-7.32-2.637-8.365-6.359c-1.025-3.651,0.547-7.676,3.768-9.678  c6.458-4.015,14.905,2.032,13.007,9.475C442.065,232.353,438.565,235.108,434.626,235.108z"
   id="path12" />
<path
   style="fill:#79C4F7;"
   d="M511.999,347.243c-22.714,0-22.714,22-45.428,22c-22.715,0-22.715-22-45.431-22s-22.715,22-45.432,22  c-22.715,0-22.715-22-45.431-22c-22.713,0-22.713,22-45.425,22c-22.715,0-22.715-22-45.431-22s-22.715,22-45.432,22  s-22.717-22-45.433-22s-22.717,22-45.432,22c-22.719,0-22.719-22-45.439-22s-22.719,22-45.439,22v-53.491  c22.719,0,22.719-22,45.439-22s22.719,22,45.439,22c22.717,0,22.717-22,45.432-22c22.717,0,22.717,22,45.433,22  c22.715,0,22.715-22,45.432-22c22.715,0,22.715,22,45.431,22c22.713,0,22.713-22,45.425-22c22.715,0,22.715,22,45.431,22  c22.715,0,22.715-22,45.432-22c22.715,0,22.715,22,45.431,22c22.714,0,22.714-22,45.428-22"
   id="path14" />
<path
   style="fill:#66CC92;"
   d="M8.673,258.388c-3.979,0-7.566-2.753-8.464-6.799c-1.039-4.679,1.911-9.316,6.591-10.355  c0.211-0.047,21.391-4.741,54.787-11.205c7.498-1.451,15.864-3.03,25.577-4.827c45.772-8.44,115.106-20.113,185.511-27.794  c79.856-8.711,144.664-10.592,192.627-5.589c14.563,1.516,27.827,3.713,39.42,6.529c4.658,1.132,7.517,5.826,6.386,10.484  c-1.132,4.657-5.827,7.517-10.484,6.386c-10.838-2.633-23.326-4.696-37.12-6.133c-46.093-4.809-155.86-6.889-373.186,33.187  c-9.661,1.788-17.981,3.358-25.433,4.799c-33.14,6.414-54.113,11.063-54.321,11.109C9.928,258.32,9.295,258.388,8.673,258.388z"
   id="path16" />
<path
   style="fill:#F2D546;"
   d="M312.6,153.312h-0.312c-40.69,0-79.981,4.722-114.792,11.214c-3.53-8.541-6.145-13.413-6.145-13.413  c26.328-4.756,53.849-8.136,79.506-8.344c10.589-0.093,20.854,0.347,30.599,1.458L312.6,153.312z"
   id="path18" />
<g
   id="g20">
</g>
<g
   id="g22">
</g>
<g
   id="g24">
</g>
<g
   id="g26">
</g>
<g
   id="g28">
</g>
<g
   id="g30">
</g>
<g
   id="g32">
</g>
<g
   id="g34">
</g>
<g
   id="g36">
</g>
<g
   id="g38">
</g>
<g
   id="g40">
</g>
<g
   id="g42">
</g>
<g
   id="g44">
</g>
<g
   id="g46">
</g>
<g
   id="g48">
</g>
<path
   style="fill:#800000;stroke:#800000;stroke-width:1.94887;stroke-linecap:butt;stroke-linejoin:miter;stroke-miterlimit:4;stroke-dasharray:none;stroke-dashoffset:0;stroke-opacity:1;marker-mid:url(#Arrow2Lstart)"
   d="m 1.7050058,111.17399 h 101.8204542 99.13883 86.52913 86.12766 l 137.24607,0"
   id="path88"
   sodipodi:nodetypes="cccccc" /><path
   style="fill:#008000;stroke:#008000;stroke-width:5;stroke-linecap:butt;stroke-linejoin:miter;stroke-opacity:1;marker-end:url(#marker2842);stroke-miterlimit:4;stroke-dasharray:none"
   d="M 151.29642,56.679722 H 330.55365"
   id="path2838" /><text
   xml:space="preserve"
   style="font-style:normal;font-variant:normal;font-weight:bold;font-stretch:normal;font-size:74.6667px;line-height:1;font-family:'Noto Sans';-inkscape-font-specification:'Noto Sans Bold';fill:#008000;fill-opacity:1;stroke:none"
   x="357.64258"
   y="77.791626"
   id="text6042"><tspan
     sodipodi:role="line"
     id="tspan6040"
     x="357.64258"
     y="77.791626">?</tspan></text></svg>
