<?xml version="1.0" encoding="UTF-8" standalone="no"?>
<svg
   width="297mm"
   height="210mm"
   viewBox="0 0 37.417323 26.456693"
   fill="#ff0000"
   version="1.1"
   id="svg928"
   sodipodi:docname="mipt_ge.svg"
   inkscape:version="1.2.2 (b0a8486541, 2022-12-01)"
   inkscape:export-filename="mipt_ge.png"
   inkscape:export-xdpi="192"
   inkscape:export-ydpi="192"
   xmlns:inkscape="http://www.inkscape.org/namespaces/inkscape"
   xmlns:sodipodi="http://sodipodi.sourceforge.net/DTD/sodipodi-0.dtd"
   xmlns:xlink="http://www.w3.org/1999/xlink"
   xmlns="http://www.w3.org/2000/svg"
   xmlns:svg="http://www.w3.org/2000/svg"
   xmlns:rdf="http://www.w3.org/1999/02/22-rdf-syntax-ns#"
   xmlns:cc="http://creativecommons.org/ns#"
   xmlns:dc="http://purl.org/dc/elements/1.1/">
  <defs
     id="defs932" />
  <sodipodi:namedview
     id="namedview930"
     pagecolor="#ffffff"
     bordercolor="#666666"
     borderopacity="1.0"
     inkscape:showpageshadow="2"
     inkscape:pageopacity="0.0"
     inkscape:pagecheckerboard="0"
     inkscape:deskcolor="#d1d1d1"
     showgrid="false"
     inkscape:zoom="0.78666667"
     inkscape:cx="388.34746"
     inkscape:cy="356.5678"
     inkscape:window-width="1872"
     inkscape:window-height="1160"
     inkscape:window-x="48"
     inkscape:window-y="40"
     inkscape:window-maximized="1"
     inkscape:current-layer="svg928"
     inkscape:document-units="mm" />
  <title
     id="title913">Flag of Georgia</title>
  <g
     id="g1503"
     transform="translate(0.18510734,0.07672874)">
    <path
       fill="#ffffff"
       d="M 3.5235544,3.1516176 H 33.523554 V 23.151618 H 3.5235544 Z"
       id="path915" />
    <path
       d="m 16.523554,3.1516176 h 4 V 23.151618 h -4 z M 3.5235544,11.151618 H 33.523554 v 4 H 3.5235544 Z"
       id="path917" />
    <g
       id="c"
       transform="translate(3.5235544,3.1516176)">
      <g
         id="b">
        <path
           id="a"
           d="m 5.7968,1.954 a 5.4,5.4 0 0 0 1.4064,0 10.4,10.4 0 0 0 0,4.092 5.4,5.4 0 0 0 -1.4064,0 10.4,10.4 0 0 0 0,-4.092 z" />
        <use
           transform="rotate(90,6.5,4)"
           xlink:href="#a"
           id="use920" />
      </g>
      <use
         x="17"
         xlink:href="#b"
         id="use923" />
    </g>
  </g>
  <use
     y="12"
     xlink:href="#c"
     id="use926" />
  <g
     id="g188"
     transform="matrix(0.0037226,0,0,-0.0037226,11.116051,22.508769)"
     style="stroke:#ffffff;stroke-width:179.086;stroke-linecap:round;stroke-miterlimit:20;stroke-dasharray:none;paint-order:markers stroke fill">
    <path
       d="m 1588.49,4316.95 249.28,598.16 -609.76,-299.07 -609.748,299.07 249.269,-598.16 h 720.959"
       style="fill:#316bbd;fill-opacity:1;fill-rule:nonzero;stroke:#ffffff;stroke-width:179.086;stroke-linecap:round;stroke-miterlimit:20;stroke-dasharray:none;paint-order:markers stroke fill"
       id="path190" />
    <path
       d="m 1054.51,3561.77 57.85,288.06 c 76.05,0.71 123.36,-46.16 109.33,-116.37 -14.05,-70.3 -84.96,-140.86 -167.18,-171.69 z m -79.623,-15.87 c -76.129,-0.76 -123.489,46.12 -109.449,116.37 14.054,70.34 85.031,140.93 167.312,171.74 z M 4054.74,3347.77 c -134.5,668.72 -525.77,1219.84 -1050.1,1571.15 L 2777.31,3786.95 c 261.73,-233.42 452.84,-550.45 527.5,-920.69 C 3471.86,2037.79 2998.08,1229.04 2224.83,953.09 l 252.44,1257.01 c 64.09,319.2 -60.17,478.46 -354.97,419.26 l -909.34,-182.62 c 0,0 105.3,524.33 245.78,1223.85 64.11,319.24 -60.14,478.52 -354.96,419.31 C 663.801,4001.55 291.445,3581.76 141.855,3256.46 L 675.5,3363.62 0,0 l 751.922,151 355.118,1768.32 516.91,102.9 c 46.58,9.27 87.61,-31.82 78.26,-78.39 L 1366.97,274.52 1987.58,399.16 c 44.79,8.969 88.68,18.371 131.67,28.192 v 0 C 3458.18,698.031 4324.73,2005.53 4054.74,3347.77"
       style="fill:#316bbd;fill-opacity:1;fill-rule:nonzero;stroke:#ffffff;stroke-width:179.086;stroke-linecap:round;stroke-miterlimit:20;stroke-dasharray:none;paint-order:markers stroke fill"
       id="path192" />
  </g>
  <metadata
     id="metadata1478">
    <rdf:RDF>
      <cc:Work
         rdf:about="">
        <dc:title>Flag of Georgia</dc:title>
      </cc:Work>
    </rdf:RDF>
  </metadata>
</svg>
